<svg  version="1.1" xmlns="http://www.w3.org/2000/svg" xmlns:xlink="http://www.w3.org/1999/xlink">
  <symbol id="calenda" viewBox="0 0 20 21">
    <path d="M14.9792 4.2833C15.7575 4.2833 16.3879 3.65711 16.3879 2.87878V1.40734C16.3879 0.628302 15.7575 0 14.9792 0C14.2015 0 13.5732 0.628302 13.5732 1.40734V2.87878C13.5732 3.65711 14.2015 4.2833 14.9792 4.2833Z" />
    <path d="M19.9796 2.43534H17.1473V3.15169C17.1473 4.33222 16.1872 5.2951 15.0039 5.2951C13.8191 5.2951 12.8619 4.33222 12.8619 3.15169V2.43534H7.14447V3.15169C7.14447 4.33222 6.18441 5.2951 5.00106 5.2951C3.81771 5.2951 2.85905 4.33151 2.85905 3.15098V2.43534L1.59539e-09 2.39941V20.2919H1.42918H18.5736L20 20.2877L19.9796 2.43534ZM18.5736 18.867H1.42918V7.43639H18.5736V18.867Z"/>
    <path d="M4.97844 4.2833C5.75677 4.2833 6.38578 3.65711 6.38578 2.87878V1.40734C6.38578 0.628302 5.75748 0 4.97844 0C4.20152 0 3.57251 0.628302 3.57251 1.40734V2.87878C3.57251 3.65711 4.20152 4.2833 4.97844 4.2833Z" />
    <path d="M9.39989 8.9707H7.14941V10.9577H9.39989V8.9707Z" />
    <path d="M5.87792 8.9707H3.62744V10.9577H5.87792V8.9707Z" />
    <path d="M13.0428 8.9707H10.7896V10.9577H13.0428V8.9707Z" />
    <path d="M16.416 8.9707H14.1655V10.9577H16.416V8.9707Z" />
    <path d="M9.39989 12.2705H7.14941V14.2561H9.39989V12.2705Z" />
    <path d="M13.0428 12.2705H10.7896V14.2561H13.0428V12.2705Z" />
    <path d="M16.416 12.2705H14.1655V14.2561H16.416V12.2705Z" />
    <path d="M9.39989 15.6357H7.14941V17.6214H9.39989V15.6357Z" />
    <path d="M5.82158 12.2705H3.57251V14.2561H5.82158V12.2705Z" />
    <path d="M5.82158 15.6357H3.57251V17.6214H5.82158V15.6357Z" />
    <path d="M13.0428 15.6357H10.7896V17.6214H13.0428V15.6357Z" />
    <path d="M16.416 15.6357H14.1655V17.6214H16.416V15.6357Z" />
  </symbol>
  <symbol id="user" viewBox="0 0 18 19" >
<path d="M9.00018 9.59594C11.229 9.59594 13.036 7.4478 13.036 4.79795C13.036 1.12334 11.2291 0 9.00018 0C6.77119 0 4.96436 1.12334 4.96436 4.79795C4.9644 7.4478 6.77124 9.59594 9.00018 9.59594Z" />
<path d="M17.912 16.6582L15.8758 11.9994C15.7827 11.7862 15.6191 11.6094 15.4155 11.5017L12.2555 9.83093C12.1858 9.79415 12.1015 9.8013 12.0388 9.84947C11.1451 10.5361 10.0942 10.899 9.00004 10.899C7.90565 10.899 6.8549 10.5361 5.96116 9.84947C5.89834 9.8013 5.81396 9.79415 5.74428 9.83093L2.58455 11.5017C2.38083 11.6094 2.2174 11.7861 2.12418 11.9994L0.088054 16.6582C-0.0523243 16.9794 -0.0235536 17.3469 0.16504 17.6415C0.353546 17.936 0.672575 18.1118 1.01848 18.1118H16.9815C17.3274 18.1118 17.6465 17.9359 17.835 17.6414C18.0235 17.3469 18.0524 16.9793 17.912 16.6582Z" />
</symbol>
   <symbol id="settings" viewBox="0 0 18 19" >
<path d="M3.96105 7.73223C4.36295 7.73223 4.75775 7.66929 5.1381 7.54803L7.39871 9.80709L9.8744 7.33189L7.61484 5.07036C8.05042 3.70925 7.69253 2.20106 6.67738 1.18626C5.95472 0.463391 4.99269 0.0654297 3.97123 0.0654297C3.4005 0.0654297 2.82822 0.194762 2.31475 0.439602C2.23728 0.476513 2.18304 0.548513 2.16851 0.632933C2.15441 0.717353 2.18156 0.803037 2.24184 0.863878L4.62035 3.24294C4.79585 3.41831 4.89269 3.65115 4.89269 3.89831C4.89269 4.14609 4.79571 4.37851 4.62035 4.55388C4.27095 4.90433 3.66007 4.90433 3.31004 4.55297L0.930697 2.17453C0.869716 2.11355 0.782067 2.08681 0.700033 2.10099C0.615402 2.11552 0.543613 2.16976 0.506701 2.24723C-0.192099 3.71164 0.107407 5.46531 1.25343 6.61049C1.97651 7.33357 2.93805 7.73223 3.96105 7.73223Z"/>
<path d="M16.0401 12.1321C15.6374 12.1321 15.242 12.1955 14.8613 12.317L12.3609 9.81641L9.88354 12.2934L12.3846 14.7944C11.95 16.1551 12.3076 17.6629 13.3221 18.6783C14.045 19.4012 15.007 19.7992 16.0284 19.7992C16.5994 19.7992 17.1716 19.6696 17.6851 19.4248C17.7626 19.388 17.8168 19.3159 17.8313 19.2315C17.8459 19.1471 17.8183 19.0613 17.758 19.0005L15.3796 16.621C15.2044 16.446 15.1076 16.2136 15.1074 15.9665C15.1074 15.7189 15.2042 15.4865 15.38 15.3109C15.7305 14.9601 16.34 14.9604 16.6899 15.3111L19.0687 17.6895C19.1295 17.7501 19.2143 17.777 19.2997 17.7631C19.3841 17.7483 19.4562 17.6943 19.493 17.6168C20.1918 16.1526 19.8925 14.3992 18.7465 13.2538C18.0236 12.5308 17.0623 12.1321 16.0401 12.1321Z" />
<path d="M15.0224 6.49257C15.0224 6.49257 15.4362 6.85502 15.7774 6.68569C16.163 6.49165 17.2493 7.56266 17.5959 7.81326C17.5971 7.8141 17.5994 7.8141 17.6035 7.81606L17.414 8.00638C17.1638 8.25374 17.164 8.65767 17.4134 8.90546C17.663 9.15394 18.0642 9.15373 18.3138 8.90546L19.814 7.40723C20.0619 7.1581 20.0621 6.75488 19.8136 6.50618C19.566 6.25832 19.1622 6.25832 18.9137 6.50639L18.6639 6.756C18.4568 6.47088 18.1128 5.98492 18.1565 5.82394C18.3394 5.1189 16.9021 3.45351 16.9021 3.45351C13.3325 -0.115441 10.9481 -0.0343185 9.81384 0.355713C9.35855 0.512343 9.44297 0.61157 9.91587 0.694868C13.3572 1.29556 13.7841 3.32502 13.2008 4.10803C12.9764 4.41034 13.3036 4.77532 13.3036 4.77532L13.4266 4.89749L7.61597 10.7071C7.69477 10.7546 7.77133 10.8087 7.83884 10.8764L8.81631 11.8529C8.88269 11.9195 8.93694 11.9955 8.98402 12.0743L14.7948 6.26443L15.0224 6.49257Z"/>
<path d="M7.44781 11.2669C7.23336 11.0523 6.86838 11.0385 6.63898 11.2377L0.181567 17.0269C-0.0488869 17.2259 -0.0617288 17.5646 0.153146 17.7795L1.91201 19.5371C2.12702 19.752 2.46512 19.74 2.66393 19.5108L8.45489 13.0515C8.653 12.8223 8.64043 12.4586 8.42535 12.244L7.44781 11.2669Z"/>
</symbol>
   <symbol id="users" viewBox="0 0 20 21" >
<path d="M3.17861 4.01004C4.26788 4.01004 5.15091 3.12701 5.15091 2.03774C5.15091 0.948461 4.26788 0.0654297 3.17861 0.0654297C2.08933 0.0654297 1.2063 0.948461 1.2063 2.03774C1.2063 3.12701 2.08933 4.01004 3.17861 4.01004Z"/>
<path d="M0.978003 10.9207H1.1736V14.8327C1.1736 15.3708 1.61371 15.8107 2.15161 15.8107H4.20541C4.74332 15.8107 5.18342 15.3708 5.18342 14.8327V14.6047C5.00412 14.2622 4.89002 13.8712 4.89002 13.4637V8.34548C4.89002 7.35117 5.49312 6.48727 6.35702 6.11237V5.72117C6.35702 5.18327 5.91692 4.74316 5.37902 4.74316H0.978003C0.440101 4.74316 0 5.18327 0 5.72117V9.94288C0 10.4808 0.423801 10.9207 0.978003 10.9207Z" />
<path d="M16.838 4.01004C17.9273 4.01004 18.8103 3.12701 18.8103 2.03774C18.8103 0.948461 17.9273 0.0654297 16.838 0.0654297C15.7488 0.0654297 14.8657 0.948461 14.8657 2.03774C14.8657 3.12701 15.7488 4.01004 16.838 4.01004Z"/>
<path d="M13.6431 5.70554V6.09674C14.5071 6.47164 15.1101 7.33555 15.1101 8.32985V13.4318C15.1101 13.8393 15.0123 14.2305 14.8168 14.5728V14.801C14.8168 15.3389 15.2568 15.779 15.7948 15.779H17.8486C18.3865 15.779 18.8266 15.3389 18.8266 14.801V10.889H19.0221C19.5601 10.889 20.0001 10.4489 20.0001 9.91096V5.70554C20.0001 5.16764 19.5601 4.72754 19.0221 4.72754H14.6211C14.0833 4.72754 13.6431 5.16748 13.6431 5.70554Z" />
<path d="M6.37329 8.346V9.94341V13.4642C6.37329 14.0021 6.81339 14.4422 7.35129 14.4422H7.7262V19.0551C7.7262 19.593 8.1663 20.0331 8.7042 20.0331H11.3285C11.8664 20.0331 12.3065 19.593 12.3065 19.0551V14.4259H12.6814C13.2193 14.4259 13.6594 13.986 13.6594 13.4479V9.94357V8.34617C13.6594 7.80827 13.2193 7.36816 12.6814 7.36816H7.35129C6.79709 7.368 6.37329 7.80827 6.37329 8.346Z" />
<path d="M10.0081 6.5529C11.2595 6.5529 12.2738 5.53851 12.2738 4.28719C12.2738 3.03588 11.2595 2.02148 10.0081 2.02148C8.75682 2.02148 7.74243 3.03588 7.74243 4.28719C7.74243 5.53851 8.75682 6.5529 10.0081 6.5529Z"/>
</symbol>
   <symbol id="messages" viewBox="0 0 20 17" >
<path d="M1.9196 5.31729C2.1726 5.49863 2.93522 6.03719 4.20752 6.9327C5.47985 7.82821 6.45455 8.51773 7.13164 9.0013C7.20603 9.05431 7.36408 9.16953 7.60585 9.34713C7.84767 9.52485 8.0486 9.66847 8.20848 9.77801C8.36848 9.88752 8.5619 10.0104 8.78894 10.1464C9.0159 10.2822 9.22985 10.3844 9.43074 10.4521C9.63167 10.5203 9.81766 10.5541 9.98876 10.5541H9.99998H10.0112C10.1823 10.5541 10.3684 10.5203 10.5693 10.4521C10.7702 10.3844 10.9843 10.2821 11.2111 10.1464C11.4379 10.0102 11.6314 9.88748 11.7914 9.77801C11.9514 9.66847 12.1521 9.52485 12.394 9.34713C12.6358 9.16937 12.794 9.05431 12.8684 9.0013C13.5528 8.51773 15.294 7.28961 18.0915 5.31705C18.6347 4.93179 19.0884 4.46693 19.453 3.92277C19.8178 3.37884 20 2.80824 20 2.21127C20 1.71242 19.8232 1.28539 19.4697 0.930225C19.1163 0.574983 18.6977 0.397461 18.2142 0.397461H1.78564C1.21276 0.397461 0.77189 0.593922 0.463111 0.986845C0.15437 1.37985 0 1.87108 0 2.4605C0 2.93661 0.20468 3.45254 0.613846 4.00797C1.02297 4.56345 1.45837 4.99993 1.9196 5.31729Z"/>
<path d="M18.8838 6.53014C16.4435 8.20773 14.5906 9.51149 13.3259 10.4411C12.9018 10.7584 12.5578 11.0061 12.2936 11.1836C12.0293 11.3612 11.678 11.5426 11.2389 11.7276C10.8 11.913 10.3909 12.0054 10.0114 12.0054H10H9.9888C9.60934 12.0054 9.20006 11.913 8.76115 11.7276C8.32224 11.5426 7.97061 11.3612 7.70647 11.1836C7.44241 11.0061 7.09826 10.7584 6.6742 10.4411C5.66968 9.69302 3.82075 8.38918 1.12734 6.53014C0.703129 6.24315 0.327387 5.9142 0 5.54395V14.5445C0 15.0436 0.174776 15.4704 0.524523 15.8256C0.874192 16.1809 1.29465 16.3585 1.78575 16.3585H18.2144C18.7053 16.3585 19.1258 16.1809 19.4755 15.8256C19.8253 15.4703 20 15.0437 20 14.5445V5.54395C19.68 5.90653 19.3081 6.23549 18.8838 6.53014Z"/>
</symbol>
<symbol id="arrow_bottom" viewBox="0 0 10 6" >
<path d="M4.39626 5.15214L0.683169 1.38059C0.44685 1.14068 0.44685 0.751695 0.683169 0.511895C0.919278 0.272077 1.30222 0.272077 1.53831 0.511895L4.82383 3.84913L8.10923 0.511992C8.34543 0.272174 8.72834 0.272174 8.96445 0.511992C9.20065 0.751811 9.20065 1.14077 8.96445 1.38069L5.2513 5.15224C5.13319 5.27214 4.97856 5.33203 4.82385 5.33203C4.66906 5.33203 4.51431 5.27203 4.39626 5.15214Z" />
</symbol>
<symbol id="arrow_right" viewBox="0 0 6 9" >
<path d="M1.13514 0L4.85176e-08 0.98587L3.72973 4.22516L4.85176e-08 7.46445L1.13514 8.45032L6 4.22516L1.13514 0Z" fill="#0AD69C"/>
</symbol>
<symbol id="is_mute" viewBox="0 0 8 10">
<path d="M1.98809 6.27886C2.00229 6.27886 2.03069 6.27886 2.03069 6.27886L5.68025 2.37696V0.800897C5.68025 0.54077 5.38203 0.403056 5.19743 0.556072L2.17269 3.15734C2.13009 3.18794 2.05909 3.21854 1.98809 3.21854H0.255611C0.0994042 3.21854 0 3.35626 0 3.52458V5.97283C0 6.14114 0.0852036 6.27886 0.255611 6.27886H1.98809Z" fill="#9BA0AD"/>
<path d="M7.90954 1.04591C7.79594 0.923498 7.62553 0.923498 7.51193 1.04591L0.156005 8.97212C0.0423995 9.09454 0.0423995 9.27816 0.156005 9.40057C0.212807 9.46177 0.28381 9.49238 0.354813 9.49238C0.425816 9.49238 0.496819 9.46177 0.553622 9.40057L2.85412 6.92171L5.21143 8.92622C5.39603 9.07924 5.69425 8.94152 5.69425 8.68139V3.92261L7.93794 1.48966C8.03735 1.36724 8.00895 1.16832 7.90954 1.04591Z" fill="#9BA0AD"/>
</symbol>
<symbol id="search_icon"  viewBox="0 0 15 16">
<path fill-rule="evenodd" clip-rule="evenodd" d="M10.6172 10.499L14.0684 14.1387C14.3604 14.4463 14.3506 14.9375 14.0474 15.2334C13.9045 15.373 13.7163 15.4492 13.5181 15.4492C13.3086 15.4492 13.113 15.3652 12.9678 15.2119L9.49023 11.5449C8.50293 12.248 7.3479 12.6191 6.13599 12.6191C2.90771 12.6191 0.28125 9.95605 0.28125 6.68262C0.28125 3.40918 2.90771 0.746094 6.13599 0.746094C9.36426 0.746094 11.9907 3.40918 11.9907 6.68262C11.9907 8.08301 11.5044 9.42969 10.6172 10.499ZM10.4634 6.68262C10.4634 4.26367 8.52222 2.29492 6.13599 2.29492C3.74976 2.29492 1.80859 4.26367 1.80859 6.68262C1.80859 9.10254 3.74976 11.0703 6.13599 11.0703C8.52222 11.0703 10.4634 9.10254 10.4634 6.68262Z" fill="#BBC3CF"/>
</symbol>
<symbol id="smile" viewBox="0 0 19 20">
<path fill-rule="evenodd" clip-rule="evenodd" d="M16.2242 3.44495C12.7132 -0.115601 7.00052 -0.115601 3.49002 3.44397C-0.0209656 7.00354 -0.0207214 12.7955 3.49051 16.3561C7.00052 19.9156 12.7132 19.9156 16.2239 16.3551C19.7346 12.7955 19.7344 7.00354 16.2242 3.44495ZM15.2417 15.359C12.2727 18.3698 7.44144 18.3698 4.4722 15.36C1.50247 12.3483 1.50296 7.44983 4.4722 4.43909C7.44144 1.42834 12.2725 1.42834 15.2422 4.43909C18.2112 7.44983 18.2107 12.3492 15.2417 15.359ZM7.55081 6.36096C6.96951 6.36096 6.49832 6.8385 6.49832 7.42834C6.49832 8.01721 6.96951 8.49573 7.55081 8.49573C8.13162 8.49573 8.60306 8.01721 8.60306 7.42834C8.60306 6.8385 8.13162 6.36096 7.55081 6.36096ZM11.2705 7.42834C11.2705 6.8385 11.7422 6.36096 12.3233 6.36096C12.9043 6.36096 13.3755 6.8385 13.3755 7.42834C13.3755 8.01721 12.9043 8.49573 12.3233 8.49573C11.7422 8.49573 11.2705 8.01721 11.2705 7.42834ZM9.86746 14.316C11.5789 14.316 13.1062 13.3278 13.7586 11.7985C13.8701 11.5367 13.7513 11.233 13.4932 11.1198C13.2351 11.0065 12.9356 11.1276 12.8238 11.3893C12.333 12.5406 11.1724 13.2838 9.86746 13.2838C8.53201 13.2838 7.36478 12.5406 6.89334 11.3903C6.81204 11.191 6.62259 11.0719 6.42313 11.0719C6.35794 11.0719 6.29178 11.0846 6.22781 11.111C5.96805 11.2203 5.845 11.5231 5.95291 11.7858C6.58255 13.3229 8.11917 14.316 9.86746 14.316Z" />
</symbol>
<symbol id="attach_icon" viewBox="0 0 20 20" >
<path d="M18.487 2.31344C16.4696 0.267914 13.1981 0.267914 11.1808 2.31344L1.13524 12.499C-0.378414 14.0338 -0.378414 16.5206 1.13524 18.0555C2.38285 19.3205 4.26462 19.5247 5.73568 18.7037C5.88935 18.6958 6.04046 18.6369 6.15802 18.519L16.2035 8.33343C17.2122 7.31069 17.2122 5.6528 16.2035 4.63006C15.1948 3.60733 13.5598 3.60733 12.5511 4.63006L4.33178 12.964C4.07991 13.2193 4.07991 13.6345 4.33178 13.8898C4.58364 14.1452 4.99306 14.1452 5.24487 13.8898L13.4642 5.55589C13.9692 5.04386 14.7867 5.04386 15.2904 5.55589C15.7954 6.06792 15.7954 6.89684 15.2904 7.4076L5.70082 17.1309C4.69215 18.1536 3.05706 18.1536 2.04839 17.1309C1.03972 16.1082 1.03972 14.4503 2.04839 13.4275L12.0939 3.23927C13.6075 1.7045 16.0602 1.7045 17.5739 3.23927C19.0875 4.77404 19.0875 7.26085 17.5739 8.79568L8.44146 18.0555C8.18959 18.3108 8.18959 18.726 8.44146 18.9813C8.69333 19.2367 9.10274 19.2367 9.35455 18.9813L18.487 9.72151C20.5043 7.67603 20.5043 4.35897 18.487 2.31344Z"/>
</symbol>
<symbol id="send_icon" viewBox="0 0 20 18">
<path d="M18.9726 0.978285L0.548796 10.5489C-0.209082 10.9424 -0.17799 11.5191 0.617199 11.831L2.96934 12.7519C3.76298 13.063 4.96625 12.8944 5.64096 12.3716L15.8564 4.3918C16.528 3.86741 16.6003 3.94519 16.0165 4.56429L7.94024 13.1293C7.35493 13.7461 7.52905 14.5022 8.32501 14.8095L8.60018 14.9165C9.39615 15.2214 10.6974 15.7343 11.4894 16.0546L14.0981 17.1064C14.891 17.426 15.5392 17.6909 15.5392 17.6955C15.5392 17.7001 15.5439 17.7148 15.5478 17.7155C15.5517 17.7171 15.739 17.0502 15.9629 16.2325L19.9411 1.75062C20.165 0.932083 19.7305 0.585573 18.9726 0.978285Z" />
</symbol>
<symbol id="message_tail" viewBox="0 0 24 16" >
<path d="M21.5003 15.0002C16.3222 15 1.07154 15.0664 0.5 15.0006C12 11.5003 13.9344 1.57112 14.0002 0.999579C14.0661 0.428038 27.4236 15.0003 21.5003 15.0002Z" fill="#ff00ff"/>
</symbol>

    <view id="calendar" viewBox="0 0 20 21" />
    <view id="profile" viewBox="0 21 18 19" />
    <view id="setting" viewBox="0 40 18 19" />
    <view id="team" viewBox="0 59 20 21" />
    <view id="message" viewBox="0 80 20 17" />
    <view id="calendar-white" viewBox="0 100 20 21" />
    <view id="profile-white" viewBox="0 121 18 19" />
    <view id="setting-white" viewBox="0 140 18 19" />
    <view id="team-white" viewBox="0 159 20 21" />
    <view id="message-white" viewBox="0 180 20 17" />
    <view id="arrow-bottom" viewBox="0 197 10 6" />
    <view id="arrow-bottom-lightgreen" viewBox="0 207 10 6" />
    <view id="arrow-right" viewBox="0 213 6 9" />
    <view id="mute" viewBox="0 222 8 10" />
    <view id="search" viewBox="0 232 15 16" />
    <view id="stiсker" viewBox="0 248 19 20" />
    <view id="attach" viewBox="0 268 20 20" />
    <view id="send" viewBox="0 288 20 18" />
    <view id="stiсker-lightgreen" viewBox="0 354 19 20" />
    <view id="attach-lightgreen" viewBox="0 374 20 20" />
    <view id="send-lightgreen" viewBox="0 394 20 18" />
    <view id="message-tail" viewBox="0 412 24 16" />

    <use xlink:href="#calenda" width="20" style="fill: #8089A6;" height="21" x="0" y="0"></use>
    <use xlink:href="#user" style="fill: #8089A6;" width="18" height="19" x="0" y="21"></use>
    <use xlink:href="#settings" style="fill: #8089A6;" width="18" height="19" x="0" y="40"></use>
    <use xlink:href="#users" style="fill: #8089A6;"  width="20" height="21" x="0" y="59"></use>
    <use xlink:href="#messages" style="fill: #8089A6;"  width="20" height="17" x="0" y="80"></use>
    <use xlink:href="#calenda" width="20" style="fill: #fff;" height="21" x="0" y="100"></use>
    <use xlink:href="#user" style="fill: #fff;" width="18" height="19" x="0" y="121"></use>
    <use xlink:href="#settings" style="fill: #fff;" width="18" height="19" x="0" y="140"></use>
    <use xlink:href="#users" style="fill: #fff;"  width="20" height="21" x="0" y="159"></use>
    <use xlink:href="#messages" style="fill: #fff;"  width="20" height="17" x="0" y="180"></use>
    <use xlink:href="#arrow_bottom" style="fill: #01134E;"  width="10" height="6" x="0" y="197"></use>
    <use xlink:href="#arrow_bottom" style="fill: #0AD69C;"  width="10" height="6" x="0" y="207"></use>
    <use xlink:href="#arrow_right"  width="6" height="9" x="0" y="213"></use>
    <use xlink:href="#is_mute"  width="8" height="10" x="0" y="222"></use>
    <use xlink:href="#search_icon" width="15" height="16" x="0" y="232"></use>
    <use xlink:href="#smile" width="19" height="20" style="fill: #BBC3CF;"  x="0" y="248"></use>
    <use xlink:href="#attach_icon" width="20" height="20" style="fill: #BBC3CF;" x="0" y="268"></use>
    <use xlink:href="#send_icon" width="20" height="18"  style="fill: #BBC3CF;"  x="0" y="288"></use>
    <use xlink:href="#smile" width="19" height="20" style="fill: #0AD69C;"  x="0" y="354"></use>
    <use xlink:href="#attach_icon" width="20" height="20" style="fill: #0AD69C;" x="0" y="374"></use>
    <use xlink:href="#send_icon" width="20" height="18"  style="fill: #0AD69C;"  x="0" y="394"></use>
    <use xlink:href="#message_tail" width="24" height="16" x="0" y="412"></use>   
    
</svg>